<?xml version="1.0" encoding="UTF-8" standalone="no"?>
<svg
   xmlns:osb="http://www.openswatchbook.org/uri/2009/osb"
   xmlns:dc="http://purl.org/dc/elements/1.1/"
   xmlns:cc="http://creativecommons.org/ns#"
   xmlns:rdf="http://www.w3.org/1999/02/22-rdf-syntax-ns#"
   xmlns:svg="http://www.w3.org/2000/svg"
   xmlns="http://www.w3.org/2000/svg"
   width="400.00003"
   height="400.00003"
   viewBox="0 0 105.83334 105.83335"
   version="1.1"
   id="svg8">
  <defs
     id="defs2">
    <linearGradient
       osb:paint="solid"
       id="linearGradient4702">
      <stop
         id="stop4700"
         offset="0"
         style="stop-color:#2b0000;stop-opacity:1;" />
    </linearGradient>
  </defs>
  <metadata
     id="metadata5">
    <rdf:RDF>
      <cc:Work
         rdf:about="">
        <dc:format>image/svg+xml</dc:format>
        <dc:type
           rdf:resource="http://purl.org/dc/dcmitype/StillImage" />
        <dc:title></dc:title>
      </cc:Work>
    </rdf:RDF>
  </metadata>
  <g
     id="layer1"
     transform="translate(-3.1528164,-200.05655)">
    <g
       id="g3758"
       transform="translate(-39.316769,119.38316)">
      <g
         transform="matrix(0.99328114,0,0,0.99328114,305.80323,23.818675)"
         id="g12776">
        <path
           id="path1022-8-9"
           d="m -234.28331,126.77837 c -2.68764,1.27826 -9.76728,-12.35659 -9.76728,-12.35659 0,0 5.24418,4.22812 6.03081,1.37659 0,0 -14.78203,-20.878367 -13.60209,-23.238247 0,0 7.73516,3.86758 10.22615,2.8843 0,0 -4.93883,-6.46789 -0.67441,-24.49898 0,0 5.39417,1.49015 8.40957,3.98113 0,0 1.17994,-15.535873 -1.3766,-15.929186 0,0 8.06292,4.523102 13.11045,13.04489 0,0 -1.50771,-5.440834 0.32776,-7.866265 0,0 8.71844,6.620773 13.89707,19.927871 0,0 1.24548,-4.12979 5.2114,-4.09701 0,0 1.01606,0 0.98328,7.73516 0,0 8.38522,-7.38705 13.20587,-1.36123 0,0 6.76745,6.95286 -0.64894,27.069797 -9.83563,16.19119 22.49093,35.59547 6.42044,45.12059 -12.91904,9.27022 -15.26103,-20.25598 -26.41755,0.13111 0,0 -2.49098,6.29301 -11.7994,1.57325 -0.0482,0 -9.78203,-3.5224 -0.91773,-17.43689 0,0 -14.02817,3.40872 -15.077,-6.55522 0,0 -1.2455,-5.50638 2.4582,-9.50507 z"
           style="display:inline;fill:#000000;stroke:#000000;stroke-width:0.21297976px;stroke-linecap:butt;stroke-linejoin:miter;stroke-opacity:1" />
        <path
           id="path175-7-2"
           d="m -220.03018,102.37159 c 3.83616,-17.246017 22.63276,1.08025 10.80111,5.78092 18.51184,6.99797 -14.47738,27.03987 -10.45404,6.22654 0.1027,-0.53133 -6.49839,7.39542 -10.84393,0.61923 -7.31049,-9.64337 7.06633,-17.088267 10.49686,-12.62669 z"
           style="display:inline;fill:#f4f1de;stroke:#000000;stroke-width:0.21297976px;stroke-linecap:butt;stroke-linejoin:miter;stroke-opacity:1" />
        <ellipse
           ry="1.3765965"
           rx="0.65552211"
           cy="112.61909"
           cx="-212.74939"
           id="path1031-2-7"
           style="display:inline;fill:#000000;fill-rule:evenodd;stroke-width:0.21297976" />
        <ellipse
           ry="0.72107428"
           rx="1.245492"
           cy="114.42192"
           cx="-216.35477"
           id="path1029-0-9"
           style="display:inline;fill:#000000;fill-rule:evenodd;stroke-width:0.21297976" />
        <circle
           r="1.3765965"
           cy="104.06468"
           cx="-212.55273"
           id="path1027-2-8"
           style="display:inline;fill:#000000;fill-rule:evenodd;stroke-width:0.21297976" />
        <circle
           r="1.3765965"
           cy="109.53841"
           cx="-223.33594"
           id="path1025-9-2"
           style="display:inline;fill:#000000;fill-rule:evenodd;stroke-width:0.23539867" />
        <path
           id="path180-3-3"
           d="m -226.14639,130.85868 c 3.14491,2.49103 1.04919,9.36914 0.81959,8.43563 -10.33129,1.26608 -11.6154,-9.6673 -0.81959,-8.43563 z"
           style="display:inline;fill:#f4f1de;stroke:#000000;stroke-width:0.17359312px;stroke-linecap:butt;stroke-linejoin:miter;stroke-opacity:1" />
        <path
           id="path1013-7-6"
           d="m -197.14413,93.778863 c 1.82472,3.02785 4.16376,5.45567 7.46854,6.756777 4.65356,-13.154977 -6.41317,-17.377127 -7.46854,-6.756777 z"
           style="display:inline;fill:#f4f1de;stroke:#000000;stroke-width:0.21297976px;stroke-linecap:butt;stroke-linejoin:miter;stroke-opacity:1" />
        <path
           id="path1036-1-5"
           d="m -172.01492,99.901843 c -0.80477,-11.51208 -11.44643,-29.987042 -20.91115,-21.56667 -4.3061,7.28751 16.18602,1.18231 19.58752,17.04641 5.1522,15.975617 -10.58031,36.983797 -35.48946,45.302817 l 0.69529,1.73822 c 23.37628,-11.58406 36.78989,-25.86178 36.1178,-42.520777 z"
           style="display:inline;fill:#000000;stroke:#000000;stroke-width:0.21297976px;stroke-linecap:butt;stroke-linejoin:miter;stroke-opacity:1" />
      </g>
      <rect
         y="80.673393"
         x="42.469585"
         height="105.83334"
         width="105.83334"
         id="rect3690"
         style="opacity:1;fill:none;fill-opacity:1;stroke:none;stroke-width:1;stroke-linecap:butt;stroke-linejoin:miter;stroke-miterlimit:4;stroke-dasharray:none;stroke-opacity:1;paint-order:normal" />
    </g>
  </g>
</svg>
